<svg width="1200" height="630" viewBox="0 0 1200 630" xmlns="http://www.w3.org/2000/svg"><defs><pattern id="satori_pattern_id_0" x="0" y="0" width="1" height="1" patternUnits="objectBoundingBox"><linearGradient id="satori_biid_0" x1="0" y1="0" x2="0" y2="1"><stop offset="0%" stop-color="#dbf4ff"/><stop offset="100%" stop-color="#fff1f1"/></linearGradient><rect x="0" y="0" width="1200" height="630" fill="url(#satori_biid_0)"/></pattern></defs><mask id="satori_om-id"><rect x="0" y="0" width="1200" height="630" fill="#fff"/></mask><rect x="0" y="0" width="1200" height="630" fill="url(#satori_pattern_id_0)"/><clipPath id="satori_bct-id-0"><path d="M399.7 350.9L384.3 350.9L384.3 278.1L399.7 278.1L399.7 308.2L430.9 308.2L430.9 278.1L446.3 278.1L446.3 350.9L430.9 350.9L430.9 320.8L399.7 320.8L399.7 350.9ZM472.2 351.9L472.2 351.9Q467.0 351.9 462.9 350.1Q458.8 348.2 456.5 344.6Q454.1 341.0 454.1 335.6L454.1 335.6Q454.1 331.1 455.8 328.0Q457.4 324.9 460.3 323.0Q463.2 321.2 466.9 320.2Q470.5 319.2 474.6 318.8L474.6 318.8Q479.3 318.3 482.3 317.9Q485.2 317.5 486.5 316.6Q487.8 315.7 487.8 313.9L487.8 313.9L487.8 313.7Q487.8 310.4 485.7 308.5Q483.6 306.7 479.7 306.7L479.7 306.7Q475.6 306.7 473.2 308.5Q470.8 310.3 470.0 312.9L470.0 312.9L456.0 311.8Q457.1 306.8 460.2 303.2Q463.3 299.6 468.3 297.6Q473.2 295.6 479.8 295.6L479.8 295.6Q484.3 295.6 488.5 296.7Q492.7 297.8 495.9 300.0Q499.2 302.2 501.0 305.7Q502.9 309.2 502.9 314.1L502.9 314.1L502.9 350.9L488.6 350.9L488.6 343.3L488.1 343.3Q486.8 345.9 484.6 347.8Q482.4 349.7 479.3 350.8Q476.2 351.9 472.2 351.9ZM476.5 341.5L476.5 341.5Q479.9 341.5 482.4 340.1Q485.0 338.8 486.4 336.5Q487.9 334.3 487.9 331.4L487.9 331.4L487.9 325.6Q487.2 326.1 486.0 326.4Q484.7 326.8 483.2 327.1Q481.7 327.4 480.2 327.6Q478.6 327.9 477.4 328.0L477.4 328.0Q474.7 328.4 472.7 329.3Q470.7 330.1 469.6 331.6Q468.5 333.0 468.5 335.1L468.5 335.1Q468.5 338.2 470.8 339.8Q473.1 341.5 476.5 341.5ZM527.9 350.9L513.0 350.9L513.0 278.1L528.1 278.1L528.1 305.5L528.5 305.5Q529.5 303.3 531.4 301.0Q533.3 298.7 536.4 297.2Q539.5 295.6 544.1 295.6L544.1 295.6Q550.0 295.6 555.1 298.7Q560.1 301.8 563.1 308.1Q566.2 314.3 566.2 323.7L566.2 323.7Q566.2 332.8 563.2 339.1Q560.3 345.3 555.3 348.5Q550.2 351.8 544.0 351.8L544.0 351.8Q539.6 351.8 536.6 350.3Q533.5 348.9 531.5 346.6Q529.6 344.4 528.5 342.1L528.5 342.1L527.9 342.1L527.9 350.9ZM527.8 323.6L527.8 323.6Q527.8 328.5 529.1 332.1Q530.5 335.7 533.0 337.7Q535.6 339.7 539.2 339.7L539.2 339.7Q542.9 339.7 545.5 337.7Q548.0 335.6 549.4 332.0Q550.7 328.4 550.7 323.6L550.7 323.6Q550.7 318.9 549.4 315.3Q548.1 311.7 545.5 309.7Q543.0 307.7 539.2 307.7L539.2 307.7Q535.5 307.7 533.0 309.6Q530.5 311.6 529.1 315.2Q527.8 318.7 527.8 323.6ZM589.3 350.9L574.2 350.9L574.2 296.3L589.3 296.3L589.3 350.9ZM581.8 289.3L581.8 289.3Q578.4 289.3 576.0 287.0Q573.6 284.8 573.6 281.6L573.6 281.6Q573.6 278.5 576.0 276.2Q578.4 274.0 581.8 274.0L581.8 274.0Q585.2 274.0 587.6 276.2Q590.0 278.5 590.0 281.6L590.0 281.6Q590.0 284.8 587.6 287.0Q585.2 289.3 581.8 289.3ZM595.6 296.3L628.4 296.3L628.4 307.7L595.6 307.7L595.6 296.3ZM603.0 336.1L603.0 283.3L618.2 283.3L618.2 334.1Q618.2 336.2 618.8 337.4Q619.4 338.5 620.6 339.0Q621.7 339.4 623.3 339.4L623.3 339.4Q624.3 339.4 625.4 339.2Q626.5 339.0 627.0 338.9L627.0 338.9L629.4 350.2Q628.3 350.6 626.2 351.0Q624.2 351.5 621.2 351.6L621.2 351.6Q615.7 351.8 611.6 350.2Q607.5 348.5 605.3 345.0Q603.0 341.5 603.0 336.1L603.0 336.1ZM680.9 311.9L680.9 311.9L667.0 312.7Q666.7 311.0 665.5 309.5Q664.3 308.1 662.4 307.2Q660.5 306.3 657.9 306.3L657.9 306.3Q654.4 306.3 652.0 307.8Q649.6 309.3 649.6 311.7L649.6 311.7Q649.6 313.7 651.1 315.0Q652.7 316.4 656.5 317.2L656.5 317.2L666.4 319.2Q674.3 320.8 678.2 324.5Q682.1 328.1 682.1 334.0L682.1 334.0Q682.1 339.3 679.0 343.4Q675.8 347.4 670.4 349.7Q664.9 351.9 657.8 351.9L657.8 351.9Q647.0 351.9 640.6 347.4Q634.2 342.9 633.1 335.1L633.1 335.1L648.0 334.3Q648.6 337.6 651.2 339.3Q653.8 341.0 657.9 341.0L657.9 341.0Q661.9 341.0 664.3 339.5Q666.7 337.9 666.8 335.5L666.8 335.5Q666.7 333.4 665.0 332.1Q663.3 330.8 659.8 330.1L659.8 330.1L650.3 328.2Q642.3 326.6 638.4 322.6Q634.5 318.7 634.5 312.6L634.5 312.6Q634.5 307.3 637.4 303.5Q640.3 299.7 645.5 297.7Q650.7 295.6 657.7 295.6L657.7 295.6Q668 295.6 673.9 300.0Q679.9 304.4 680.9 311.9ZM698.5 351.8L698.5 351.8Q695.0 351.8 692.5 349.3Q690.0 346.8 690.0 343.3L690.0 343.3Q690.0 339.8 692.5 337.3Q695.0 334.8 698.5 334.8L698.5 334.8Q701.9 334.8 704.5 337.3Q707.1 339.8 707.1 343.3L707.1 343.3Q707.1 345.6 705.9 347.6Q704.7 349.5 702.8 350.6Q700.8 351.8 698.5 351.8ZM717.4 278.1L732.6 278.1L732.6 350.9L717.4 350.9L717.4 278.1ZM767.3 351.9L767.3 351.9Q759.0 351.9 753.0 348.4Q747.0 344.9 743.7 338.5Q740.4 332.2 740.4 323.8L740.4 323.8Q740.4 315.4 743.7 309.0Q747.0 302.7 753.0 299.2Q759.0 295.6 767.3 295.6L767.3 295.6Q775.6 295.6 781.6 299.2Q787.6 302.7 790.9 309.0Q794.1 315.4 794.1 323.8L794.1 323.8Q794.1 332.2 790.9 338.5Q787.6 344.9 781.6 348.4Q775.6 351.9 767.3 351.9ZM767.4 340.2L767.4 340.2Q771.1 340.2 773.6 338.1Q776.2 335.9 777.5 332.2Q778.8 328.5 778.8 323.7L778.8 323.7Q778.8 319.0 777.5 315.2Q776.2 311.5 773.6 309.3Q771.1 307.2 767.4 307.2L767.4 307.2Q763.6 307.2 761.0 309.3Q758.4 311.5 757.1 315.2Q755.8 319.0 755.8 323.7L755.8 323.7Q755.8 328.5 757.1 332.2Q758.4 335.9 761.0 338.1Q763.6 340.2 767.4 340.2ZM802.0 278.1L817.1 278.1L817.1 350.9L802.0 350.9L802.0 278.1Z "/></clipPath><defs><pattern id="satori_pattern_id-0_0" x="0" y="0" width="1" height="1" patternUnits="objectBoundingBox"><linearGradient id="satori_biid-0_0" x1="0" y1="0" x2="1" y2="0"><stop offset="0%" stop-color="rgb(121, 40, 202)"/><stop offset="100%" stop-color="rgb(255, 0, 128)"/></linearGradient><rect x="0" y="0" width="444" height="122" fill="url(#satori_biid-0_0)"/></pattern></defs><mask id="satori_om-id-0"><rect x="378" y="254" width="444" height="122" fill="#fff"/></mask><rect x="378" y="254" width="444" height="122" fill="url(#satori_pattern_id-0_0)" clip-path="url(#satori_bct-id-0)"/></svg>